<svg xmlns="http://www.w3.org/2000/svg" viewBox="0 0 512 512" style="height: 512px; width: 512px;"><defs><linearGradient x1="0" x2="1" y1="0" y2="1" id="sbed-overkill-gradient-1"><stop offset="0%" stop-color="#48baff" stop-opacity="1"></stop><stop offset="100%" stop-color="#4a90e2" stop-opacity="1"></stop></linearGradient></defs><g class="" transform="translate(0,0)" style=""><path d="M256 16C123.45 16 16 123.45 16 256s107.45 240 240 240 240-107.45 240-240S388.55 16 256 16zm0 60c99.41 0 180 80.59 180 180s-80.59 180-180 180S76 355.41 76 256 156.59 76 256 76zM121.937 182.375A67.5 62.31 0 0 0 106 222.688a67.5 62.309 0 0 0 131.72 20.156 135 69.23 0 0 1-115.782-60.47zm268.125 0a135 69.23 0 0 1-115.78 60.47A67.5 62.31 0 0 0 406 222.687a67.5 62.309 0 0 0-15.938-40.313z" fill="url(#sbed-overkill-gradient-1)" transform="translate(25.6, 25.6) scale(0.9, 0.9) rotate(0, 256, 256) skewX(0) skewY(0)"></path></g></svg>